HIERARCHY
ROOT Hips
{
  OFFSET -119.526 91.4831 43.3124
  CHANNELS 6 Xposition Yposition Zposition Zrotation Xrotation Yrotation
  JOINT RightUpLeg
  {
    OFFSET -8.9458 -8.66707 0.101652
    CHANNELS 3 Zrotation Xrotation Yrotation
    JOINT RightLeg
    {
      OFFSET 0 -44.4227 1.3727
      CHANNELS 3 Zrotation Xrotation Yrotation
      JOINT RightFoot
      {
        OFFSET 0.253549 -42.0924 -1.46059
        CHANNELS 3 Zrotation Xrotation Yrotation
        JOINT RightToes
        {
          OFFSET 0.04 -4.41509 8.4991
          CHANNELS 3 Zrotation Xrotation Yrotation
          End Site
          {
            OFFSET -0.08 -0.137448 9.77979
          }
        }
      }
    }
  }
  JOINT Spine
  {
    OFFSET 0 11.8905 0
    CHANNELS 3 Zrotation Xrotation Yrotation
    JOINT Spine1
    {
      OFFSET 0 25.6574 0.127663
      CHANNELS 3 Zrotation Xrotation Yrotation
      JOINT HEad
      {
        OFFSET 0 8.73416 0.011341
        CHANNELS 3 Zrotation Xrotation Yrotation
        End Site
        {
          OFFSET -0.29 12.7742 2.51395
        }
      }
      JOINT LeftShoulder1
      {
        OFFSET 8.99 -0.362252 -0.22
        CHANNELS 3 Zrotation Xrotation Yrotation
        JOINT LeftArm
        {
          OFFSET 10.2827 -0.00338 0.322123
          CHANNELS 3 Zrotation Xrotation Yrotation
          JOINT LeftForeArm
          {
            OFFSET 32.7669 0.099144 -1.42434
            CHANNELS 3 Zrotation Xrotation Yrotation
            JOINT LeftHand
            {
              OFFSET 27.5643 0.085362 1.02216
              CHANNELS 3 Zrotation Xrotation Yrotation
              End Site
              {
                OFFSET 16.7443 -0.6 1.50291
              }
            }
          }
        }
      }
      JOINT RightShoulder
      {
        OFFSET -8.99 -0.362252 -0.22
        CHANNELS 3 Zrotation Xrotation Yrotation
        JOINT RightArm
        {
          OFFSET -10.2827 -0.00338 0.322123
          CHANNELS 3 Zrotation Xrotation Yrotation
          JOINT RightForeArm
          {
            OFFSET -32.8971 0.099144 -1.42434
            CHANNELS 3 Zrotation Xrotation Yrotation
            JOINT RightHand
            {
              OFFSET -27.4921 0.085362 1.02216
              CHANNELS 3 Zrotation Xrotation Yrotation
              End Site
              {
                OFFSET -16.6312 -0.6 1.50291
              }
            }
          }
        }
      }
    }
  }
  JOINT LeftUpLeg
  {
    OFFSET 8.9458 -8.66707 0.101652
    CHANNELS 3 Zrotation Xrotation Yrotation
    JOINT LeftLeg
    {
      OFFSET 0 -44.4227 1.3727
      CHANNELS 3 Zrotation Xrotation Yrotation
      JOINT LeftFoot
      {
        OFFSET -0.253549 -42.0924 -1.46059
        CHANNELS 3 Zrotation Xrotation Yrotation
        JOINT LeftToes
        {
          OFFSET -0.04 -4.41509 8.4991
          CHANNELS 3 Zrotation Xrotation Yrotation
          End Site
          {
            OFFSET 0.08 -0.047448 9.77979
          }
        }
      }
    }
  }
}
MOTION
Frames:	13
Frame Time:	0.0166667
-68.8437 92.575 74.0279 -5.83098 6.33714 -138.039 -28.4278 -22.3031 7.79284 15.3075 28.3651 -13.631 33.4389 37.9626 -13.6073 -29.4291 -28.0624 5.43089 4.23134 10.0949 -5.28072 3.52995 19.6472 -10.0009 4.70297 -11.5384 -21.7438 1.59028e-015 -3.18055e-015 -0 -70.0808 -6.90489 -62.0999 15.0776 23.4847 -124.665 -1.97896 9.57137 18.1658 26.0491 -1.70906 -8.4451 70.6314 -36.3648 59.6573 -12.9798 30.3166 121.076 -11.5469 9.02585 5.02241 33.5793 -1.70263 -10.1772 -21.2092 31.6128 30.8009 8.56756 32.1653 -3.20267 41.2446 -52.5399 5.56014 
-69.6237 92.2644 73.7746 -6.01469 6.62846 -139.295 -28.8919 -22.9972 7.09163 15.4438 29.034 -14.909 30.7049 36.5516 -12.0419 -28.3293 -27.1491 5.73806 4.04315 10.3063 -5.39435 3.34069 20.092 -10.2424 4.45134 -11.0023 -21.0495 -1.59028e-015 -9.54166e-015 3.18055e-015 -71.7734 -7.42451 -69.8302 16.4792 25.6542 -123.031 -1.53858 9.61956 18.3977 26.1843 -1.52464 -7.75547 69.6416 -35.2386 55.7441 -13.9447 29.0349 117.533 -9.21682 9.50215 1.11983 33.6234 -1.32646 -9.11991 -20.9328 30.7543 28.7992 6.2007 28.9491 -2.1744 39.1807 -50.0957 5.63436 
-70.4013 91.7007 73.5088 -6.26334 6.96802 -140.241 -29.1536 -23.2061 6.96708 15.5614 29.3563 -17.4724 26.0261 34.1897 -9.57818 -26.6542 -25.4581 5.53913 3.88374 10.5301 -5.52582 3.10306 20.5595 -10.5004 4.2097 -10.8185 -20.4745 -1.59028e-015 3.18055e-015 -0 -73.7805 -6.61285 -77.6427 19.9376 26.8529 -122.171 -2.33288 9.48132 19.9427 25.6003 -1.12617 -6.42038 68.2858 -33.8299 52.24 -14.4034 26.5247 112.769 -6.72602 9.77693 -1.92914 33.3032 -0.509998 -8.51996 -19.7228 29.169 26.4917 3.92925 27.0243 -1.36746 37.5241 -47.7137 6.28975 
-71.1813 90.9583 73.1577 -6.47079 7.28734 -140.937 -29.1734 -22.9572 7.46451 15.7171 29.2221 -20.9589 21.087 31.4485 -7.19266 -24.3269 -23.0443 5.04733 3.70992 10.6992 -5.7058 2.89551 20.9103 -10.8646 3.91849 -10.9312 -19.8788 3.18055e-015 3.18055e-015 -0 -75.763 -4.80959 -84.2108 24.6817 27.2686 -122.282 -4.53356 9.06917 22.3939 24.8919 -0.674175 -4.84282 64.9715 -30.3448 48.6502 -14.143 21.1536 107.082 -4.45033 9.87285 -3.46032 32.6944 0.778005 -8.41729 -17.8434 27.1739 24.5411 3.15789 26.6405 -1.1208 37.4858 -46.4395 8.13806 
-71.959 90.1423 72.6325 -6.53271 7.50984 -141.467 -28.9568 -22.4293 8.4121 15.9573 28.7857 -24.7411 16.905 28.9956 -5.3717 -21.8957 -20.5832 4.59369 3.50683 10.7558 -5.91621 2.82098 21.0238 -11.3383 3.40832 -11.2855 -19.2781 0 0 -0 -77.5988 -2.67308 -88.5947 29.3667 27.1393 -123.244 -7.59385 8.392 25.0155 24.6004 -0.3393 -3.60654 63.8105 -29.1778 46.2562 -13.604 19.1384 104.307 -3.6991 9.86082 -2.77111 31.9871 2.43443 -8.79507 -15.719 25.2301 23.5185 4.11656 26.9084 -1.41922 38.8954 -46.2686 10.8203 
-72.7307 89.3553 71.8876 -6.41199 7.56514 -141.947 -28.6292 -21.9368 9.6011 16.4368 28.4062 -28.1701 13.616 27.0552 -4.08036 -20.0483 -18.7641 4.33454 3.33797 10.6798 -6.12211 2.90302 20.8548 -11.8575 2.60988 -11.8138 -18.683 -0 -9.54166e-015 -0 -79.3188 -0.99202 -90.3879 32.5563 26.6892 -124.779 -10.3871 7.6593 27.2525 24.9636 -0.218399 -3.13156 64.4361 -30.8806 44.5922 -12.6427 21.3642 105.579 -4.64692 9.76198 -0.214576 31.3556 4.26506 -9.58103 -13.7558 23.6402 23.4035 5.68092 26.6935 -1.87943 40.6804 -46.4474 13.5166 
-73.4919 88.6803 70.9603 -6.17436 7.38858 -142.456 -28.4774 -21.7771 10.8746 17.383 28.3859 -30.891 11.1999 25.4839 -3.19609 -19.1254 -17.8718 4.24031 3.29352 10.4942 -6.3073 3.06093 20.4506 -12.3455 1.63586 -12.3944 -18.0546 -1.59028e-015 -1.27222e-014 -0 -80.7628 -0.435687 -89.6699 33.3476 25.9896 -126.554 -11.8532 7.18266 28.814 25.7701 -0.308646 -3.42295 66.4374 -35.444 43.7109 -11.4447 27.5476 110.632 -6.62535 9.49423 3.6681 30.8441 5.93153 -10.572 -12.3127 22.5958 23.8511 6.75652 25.8418 -2.14615 42.0377 -46.4112 15.7682 
-74.228 88.1899 69.9551 -5.94156 6.93089 -142.974 -28.8517 -22.0534 12.0715 18.9651 28.7338 -32.8427 9.84771 24.0594 -2.68828 -18.9684 -17.7256 4.24211 3.42022 10.2475 -6.471 3.20023 19.9128 -12.7363 0.704865 -12.9025 -17.4497 -0 -6.36111e-015 -0 -81.4478 -1.20229 -86.8484 31.8284 24.8404 -128.294 -11.6731 7.14512 29.4932 26.4691 -0.517234 -4.12555 64.7892 -36.6 42.1843 -9.6659 29.4057 115.812 -7.41874 9.23649 7.16182 30.3753 6.93355 -11.4203 -11.5808 22.3948 24.5231 6.99057 25.2955 -2.17748 43.2555 -46.3196 17.8346 
-74.9262 87.9354 68.9766 -5.80278 6.19803 -143.425 -29.9228 -22.5857 12.9148 21.0505 29.1507 -33.9066 9.54178 22.6273 -2.49222 -19.1171 -17.8785 4.28862 3.68963 9.99495 -6.58593 3.28014 19.3594 -12.932 0.0789391 -13.3471 -17.1197 -3.53113e-031 6.36111e-015 3.18055e-015 -80.8205 -2.78922 -82.4091 29.0263 22.8031 -129.921 -10.3848 7.45334 29.2999 26.4837 -0.701736 -4.77903 62.2611 -37.5372 41.3492 -8.12815 29.7266 121.536 -7.0951 9.1215 9.81039 29.8553 6.81584 -11.7856 -11.4371 23.3582 24.9997 6.33114 26.4009 -2.05644 45.5512 -46.899 20.4322 
-75.6092 87.9062 68.0724 -5.76963 5.28638 -143.799 -31.4944 -23.0148 13.0148 22.9861 29.3213 -33.7342 9.80007 21.3693 -2.46048 -19.4188 -18.1664 4.30711 4.03989 9.78125 -6.56283 3.29349 18.8928 -12.7462 0.000286624 -13.8674 -17.4223 7.95139e-016 -3.18055e-015 -3.18055e-015 -78.7722 -4.21693 -76.8405 26.2736 19.6641 -131.459 -8.8094 7.86122 28.6199 25.4896 -0.754562 -5.07516 60.1577 -39.9769 41.9099 -7.6884 28.8912 127.244 -6.45461 9.11401 11.5248 29.2593 5.49676 -11.5326 -11.4775 25.521 24.6744 4.73417 30.1367 -1.76242 50.1133 -48.7564 24.1215 
-76.3323 88.0369 67.225 -5.83787 4.35335 -144.237 -33.1004 -23.062 12.0972 23.8725 29.2314 -32.0189 10.1552 20.7383 -2.49853 -20.2297 -18.9098 4.25794 4.41652 9.62554 -6.25595 3.20612 18.5633 -11.9155 0.512353 -14.5448 -18.6625 -1.05934e-030 9.54166e-015 6.36111e-015 -75.9367 -4.66437 -70.7971 24.4404 15.9447 -132.755 -7.48149 8.19448 27.9701 23.4994 -0.671142 -4.98666 59.1215 -44.8078 44.0894 -8.5945 26.8508 131.621 -6.89382 9.00211 12.4713 28.5726 3.40582 -10.8323 -11.2671 28.4783 22.8206 2.12235 36.3761 -1.05881 56.6478 -51.5356 28.5745 
-77.1259 88.2676 66.3815 -6.09314 3.53109 -145.014 -34.3447 -22.7141 10.2193 23.1573 29.0701 -28.799 10.5515 21.018 -2.62112 -21.9004 -20.4513 4.19516 4.71084 9.52271 -5.52649 2.91033 18.3636 -10.2208 1.32711 -15.2715 -20.9483 1.59028e-015 0 -0 -73.1701 -3.95693 -65.0132 23.6667 12.5742 -133.463 -6.5556 8.41096 27.6101 20.742 -0.516898 -4.66742 60.3385 -52.453 48.6516 -10.2213 25.2362 133.109 -8.85832 8.73304 12.2123 27.6881 1.29397 -10.1182 -10.6803 31.5344 19.0159 -1.68205 43.8203 0.482631 62.5959 -54.3265 31.7796 
-77.9658 88.5603 65.5083 -6.68519 2.88093 -146.46 -35.1283 -22.2382 7.79253 20.917 28.9364 -24.481 11.2712 22.189 -2.91028 -24.4114 -22.7992 4.19514 4.7477 9.45368 -4.33847 2.2996 18.2395 -7.65053 1.92018 -15.7808 -24.0494 3.18055e-015 -3.18055e-015 -3.18055e-015 -70.8773 -2.41642 -59.9078 23.6317 10.0867 -133.363 -5.98335 8.54079 27.4003 17.3433 -0.328115 -4.16249 65.7911 -61.5074 57.6468 -11.9253 26.0301 130.601 -11.094 8.62357 9.87029 26.46 -0.153205 -9.85072 -10.0251 34.1382 13.7335 -6.85782 50.6019 3.2578 64.4399 -56.8851 30.4509 
